<svg xmlns="http://www.w3.org/2000/svg" width="16.154" height="15" viewBox="0 0 16.154 15">
  <path id="Icon_ionic-ios-star-outline" data-name="Icon ionic-ios-star-outline" d="M17.791,8.567h-5.3l-1.612-4.81a.584.584,0,0,0-1.1,0L8.167,8.567H2.827a.579.579,0,0,0-.577.577.424.424,0,0,0,.011.1.554.554,0,0,0,.242.407l4.359,3.072L5.189,17.585a.579.579,0,0,0,.2.649.558.558,0,0,0,.325.141.707.707,0,0,0,.361-.13l4.255-3.032,4.255,3.032a.676.676,0,0,0,.361.13.518.518,0,0,0,.321-.141.572.572,0,0,0,.2-.649l-1.673-4.864,4.323-3.1.1-.09a.551.551,0,0,0-.425-.963ZM13.2,11.9a1.013,1.013,0,0,0-.368,1.147l1.085,3.162a.145.145,0,0,1-.22.166l-2.791-1.99a1.007,1.007,0,0,0-.588-.187.989.989,0,0,0-.584.187L6.948,16.374a.144.144,0,0,1-.22-.166l1.085-3.162a1.016,1.016,0,0,0-.371-1.154L4.522,9.833A.145.145,0,0,1,4.6,9.57H8.163a1.008,1.008,0,0,0,.956-.689L10.186,5.7a.145.145,0,0,1,.274,0l1.067,3.18a1.008,1.008,0,0,0,.956.689h3.508a.143.143,0,0,1,.083.26Z" transform="translate(-2.25 -3.375)" fill="#585858"/>
</svg>
