<svg xmlns="http://www.w3.org/2000/svg" width="22.338" height="20.742" viewBox="0 0 22.338 20.742">
  <path id="Icon_ionic-ios-star-outline" data-name="Icon ionic-ios-star-outline" d="M23.74,10.555H16.406L14.177,3.9a.808.808,0,0,0-1.516,0l-2.229,6.652H3.048a.8.8,0,0,0-.8.8.586.586,0,0,0,.015.135.767.767,0,0,0,.334.563L8.627,16.3,6.314,23.025a.8.8,0,0,0,.274.9.772.772,0,0,0,.449.194.977.977,0,0,0,.5-.179l5.884-4.193L19.3,23.938a.934.934,0,0,0,.5.179.716.716,0,0,0,.444-.194.79.79,0,0,0,.274-.9L18.206,16.3l5.978-4.288.145-.125a.836.836,0,0,0,.259-.534A.844.844,0,0,0,23.74,10.555ZM17.4,15.167a1.4,1.4,0,0,0-.509,1.586l1.5,4.373a.2.2,0,0,1-.3.229L14.227,18.6a1.393,1.393,0,0,0-.813-.259,1.367,1.367,0,0,0-.808.259L8.747,21.35a.2.2,0,0,1-.3-.229l1.5-4.373a1.405,1.405,0,0,0-.514-1.6L5.391,12.305a.2.2,0,0,1,.115-.364h4.921a1.394,1.394,0,0,0,1.321-.952l1.476-4.4a.2.2,0,0,1,.379,0l1.476,4.4a1.394,1.394,0,0,0,1.321.952h4.852a.2.2,0,0,1,.115.359Z" transform="translate(-2.25 -3.375)" fill="#585858"/>
</svg>
